<svg xmlns="http://www.w3.org/2000/svg" width="19" height="15" viewBox="0 0 19 15" fill="none"><path d="M17.8337 2.94946V11.2828C17.8337 11.8353 17.6142 12.3652 17.2235 12.7559C16.8328 13.1466 16.3029 13.3661 15.7503 13.3661H3.25033C2.69779 13.3661 2.16789 13.1466 1.77719 12.7559C1.38649 12.3652 1.16699 11.8353 1.16699 11.2828V2.94946" stroke="#FCFCFC" stroke-width="1.4" stroke-linecap="round" stroke-linejoin="round"></path><path d="M17.8337 2.94954C17.8337 2.39701 17.6142 1.86711 17.2235 1.47641C16.8328 1.0857 16.3029 0.866211 15.7503 0.866211H3.25033C2.69779 0.866211 2.16789 1.0857 1.77719 1.47641C1.38649 1.86711 1.16699 2.39701 1.16699 2.94954L8.39616 7.46343C8.72727 7.67038 9.10987 7.7801 9.50033 7.7801C9.89078 7.7801 10.2734 7.67038 10.6045 7.46343L17.8337 2.94954Z" stroke="#FCFCFC" stroke-width="1.4" stroke-linecap="round" stroke-linejoin="round"></path></svg>