<svg xmlns="http://www.w3.org/2000/svg" width="23" height="24" viewBox="0 0 23 24" fill="none"><path d="M11.411 0.953613C5.18005 0.953613 0.128906 5.93304 0.128906 12.0755C0.128906 18.2179 5.18005 23.1973 11.411 23.1973C17.6419 23.1973 22.693 18.2179 22.693 12.0755C22.6858 5.936 17.6389 0.960763 11.411 0.953613Z" fill="#5243C2" fill-opacity="0.103693"></path><path d="M17.9237 8.55373L11.4882 17.163C11.3347 17.3637 11.1058 17.4952 10.853 17.528C10.6002 17.5608 10.3446 17.492 10.1437 17.3372L5.54819 13.7152C5.14266 13.3953 5.07699 12.8119 5.40152 12.4121C5.72605 12.0123 6.31787 11.9476 6.7234 12.2675L10.5555 15.2899L16.41 7.4573C16.602 7.17331 16.9367 7.0163 17.2813 7.04861C17.626 7.08091 17.9247 7.2973 18.059 7.61187C18.1932 7.92643 18.1412 8.28828 17.9237 8.55373Z" fill="#FABD00"></path></svg>