<svg xmlns="http://www.w3.org/2000/svg" width="43" height="47" viewBox="0 0 43 47" fill="none"><path d="M36.7954 32.3671L32.4309 38.6378L29.3509 36.11C29.0187 35.8355 28.5266 35.8854 28.2536 36.2176C27.9798 36.5507 28.0282 37.0428 28.362 37.315L32.0947 40.3793C32.2343 40.4948 32.4098 40.5564 32.5892 40.5564C32.6243 40.5564 32.6602 40.554 32.6961 40.5486C32.9113 40.5189 33.1047 40.4004 33.2295 40.2218L38.076 33.2578C38.3217 32.9045 38.2351 32.4186 37.881 32.1721C37.527 31.9249 37.0418 32.013 36.7954 32.3671Z" fill="#FABD00"></path><path d="M33.537 26.5574V5.45951C33.537 5.02821 33.1876 4.67958 32.7571 4.67958H26.5176V3.11972C26.5176 2.68842 26.1682 2.33979 25.7377 2.33979H21.0581V0.77993C21.0581 0.348629 20.7087 0 20.2782 0H13.2588C12.8283 0 12.4789 0.348629 12.4789 0.77993V2.33979H7.7993C7.36878 2.33979 7.01937 2.68842 7.01937 3.11972V4.67958H0.77993C0.349409 4.67958 0 5.02821 0 5.45951V44.456C0 44.8873 0.349409 45.2359 0.77993 45.2359H27.3787C28.9401 46.2187 30.7807 46.7958 32.7571 46.7958C38.3476 46.7958 42.8962 42.2473 42.8962 36.6567C42.8962 31.329 38.7633 26.9575 33.537 26.5574ZM14.0387 1.55986H19.4983V3.11972V4.67958H14.0387V3.11972V1.55986ZM8.57923 3.89965H12.4789V5.45951C12.4789 5.89081 12.8283 6.23944 13.2588 6.23944H20.2782C20.7087 6.23944 21.0581 5.89081 21.0581 5.45951V3.89965H24.9578V5.45951V7.01937H8.57923V5.45951V3.89965ZM1.55986 43.6761V6.23944H7.01937V7.7993C7.01937 8.2306 7.36878 8.57923 7.7993 8.57923H25.7377C26.1682 8.57923 26.5176 8.2306 26.5176 7.7993V6.23944H31.9771V26.5473C31.9327 26.5504 31.8898 26.5597 31.8453 26.5636C31.6932 26.5777 31.5435 26.5995 31.3937 26.6206C31.2151 26.6448 31.0358 26.6689 30.8603 26.7017C30.7097 26.7305 30.5631 26.7664 30.4149 26.8015C30.2441 26.8421 30.0733 26.8834 29.9064 26.9325C29.7606 26.9754 29.6178 27.0246 29.4751 27.0737C29.3113 27.1299 29.1491 27.1876 28.9892 27.2523C28.8496 27.3085 28.7123 27.3693 28.5751 27.4317C28.4191 27.5027 28.2654 27.576 28.1141 27.654C27.9808 27.7226 27.8497 27.7952 27.7203 27.87C27.5736 27.9543 27.4294 28.0416 27.2874 28.1336C27.1611 28.2148 27.0371 28.2982 26.9154 28.3848C26.7773 28.4823 26.6432 28.5837 26.5106 28.6882C26.3936 28.7802 26.2782 28.873 26.1659 28.9697C26.0372 29.0805 25.9124 29.1951 25.7899 29.3121C25.6831 29.4135 25.577 29.5157 25.4741 29.6217C25.3555 29.7442 25.2424 29.8713 25.1301 30C25.0334 30.1108 24.9367 30.2207 24.8455 30.3354C24.7378 30.4695 24.6372 30.6084 24.5366 30.748C24.4516 30.8665 24.365 30.9835 24.2847 31.106C24.1888 31.2518 24.1014 31.4023 24.0125 31.5529C23.94 31.6776 23.8651 31.8001 23.7972 31.9272C23.7138 32.0855 23.6397 32.2486 23.564 32.4108C23.5048 32.5395 23.4416 32.6658 23.387 32.7976C23.3168 32.9684 23.2567 33.1439 23.1959 33.3186C23.1499 33.4489 23.1 33.5776 23.0594 33.7101C23.0025 33.8973 22.9588 34.0892 22.9128 34.2803C22.8824 34.4074 22.8457 34.5314 22.8192 34.6601C22.7763 34.8746 22.7482 35.0945 22.7194 35.3137C22.7045 35.4244 22.6827 35.5321 22.671 35.6436C22.6359 35.9782 22.618 36.3151 22.618 36.6567C22.618 36.996 22.6359 37.3329 22.6694 37.6659C22.6819 37.7923 22.7069 37.914 22.724 38.0395C22.7521 38.2447 22.7771 38.4498 22.8176 38.6518C22.8449 38.7883 22.8839 38.9209 22.9167 39.0558C22.9619 39.2422 23.004 39.4294 23.0602 39.6127C23.0984 39.7367 23.146 39.8568 23.1889 39.9792C23.2544 40.1687 23.3191 40.359 23.3963 40.5439C23.4392 40.6476 23.4899 40.7467 23.5367 40.8481C23.6264 41.0462 23.7177 41.2435 23.8198 41.4353C23.8651 41.5188 23.9158 41.5991 23.9634 41.681C24.0788 41.883 24.1958 42.0827 24.3252 42.2761C24.3728 42.3471 24.4251 42.4142 24.4742 42.4844C24.6115 42.6793 24.7519 42.8728 24.9039 43.0584C24.9601 43.127 25.0209 43.191 25.0787 43.258C25.1995 43.3984 25.315 43.5419 25.4437 43.6761H1.55986ZM32.7571 45.2359C30.996 45.2359 29.3574 44.7009 27.994 43.7876C27.7281 43.6098 27.4769 43.4164 27.2359 43.2136C27.1517 43.1426 27.0722 43.0654 26.991 42.9905C26.8374 42.8509 26.6884 42.7074 26.5465 42.5584C26.4552 42.4625 26.3671 42.365 26.2805 42.266C26.1526 42.1193 26.0325 41.9665 25.9155 41.8113C25.8406 41.7122 25.7634 41.6155 25.6925 41.5133C25.5201 41.263 25.3579 41.0056 25.2128 40.7389C25.1793 40.6765 25.1527 40.6102 25.1208 40.5478C25.0069 40.3247 24.9008 40.0985 24.8065 39.8661C24.7659 39.7647 24.7308 39.661 24.6934 39.5573C24.6201 39.3529 24.553 39.1463 24.4945 38.9365C24.4648 38.828 24.436 38.7204 24.4103 38.6104C24.358 38.3882 24.3174 38.1628 24.2831 37.9358C24.2683 37.8383 24.2496 37.7424 24.2387 37.6433C24.202 37.3181 24.1778 36.989 24.1778 36.6567C24.1778 31.9264 28.0268 28.0775 32.7571 28.0775C37.4873 28.0775 41.3363 31.9264 41.3363 36.6567C41.3363 41.387 37.4873 45.2359 32.7571 45.2359Z" fill="#383637"></path><path d="M5.45962 14.0387H15.5987C16.0292 14.0387 16.3786 13.6901 16.3786 13.2588C16.3786 12.8275 16.0292 12.4789 15.5987 12.4789H5.45962C5.0291 12.4789 4.67969 12.8275 4.67969 13.2588C4.67969 13.6901 5.0291 14.0387 5.45962 14.0387Z" fill="black"></path><path d="M15.5987 35.8767H5.45962C5.0291 35.8767 4.67969 36.2253 4.67969 36.6566C4.67969 37.0879 5.0291 37.4366 5.45962 37.4366H15.5987C16.0292 37.4366 16.3786 37.0879 16.3786 36.6566C16.3786 36.2253 16.0292 35.8767 15.5987 35.8767Z" fill="black"></path><path d="M5.45962 18.7183H28.0776C28.5081 18.7183 28.8575 18.3697 28.8575 17.9384C28.8575 17.5071 28.5081 17.1584 28.0776 17.1584H5.45962C5.0291 17.1584 4.67969 17.5071 4.67969 17.9384C4.67969 18.3697 5.0291 18.7183 5.45962 18.7183Z" fill="black"></path><path d="M5.45962 28.0774H24.1779C24.6085 28.0774 24.9579 27.7288 24.9579 27.2975C24.9579 26.8662 24.6085 26.5176 24.1779 26.5176H5.45962C5.0291 26.5176 4.67969 26.8662 4.67969 27.2975C4.67969 27.7288 5.0291 28.0774 5.45962 28.0774Z" fill="black"></path><path d="M20.2783 31.1971H5.45962C5.0291 31.1971 4.67969 31.5458 4.67969 31.9771C4.67969 32.4084 5.0291 32.757 5.45962 32.757H20.2783C20.7088 32.757 21.0582 32.4084 21.0582 31.9771C21.0582 31.5458 20.7088 31.1971 20.2783 31.1971Z" fill="black"></path><path d="M5.45962 23.398H16.3786C16.8092 23.398 17.1586 23.0494 17.1586 22.6181C17.1586 22.1868 16.8092 21.8381 16.3786 21.8381H5.45962C5.0291 21.8381 4.67969 22.1868 4.67969 22.6181C4.67969 23.0494 5.0291 23.398 5.45962 23.398Z" fill="black"></path><path d="M28.0773 21.8381H22.6178C22.1873 21.8381 21.8379 22.1868 21.8379 22.6181C21.8379 23.0494 22.1873 23.398 22.6178 23.398H28.0773C28.5079 23.398 28.8573 23.0494 28.8573 22.6181C28.8573 22.1868 28.5079 21.8381 28.0773 21.8381Z" fill="black"></path></svg>