<svg xmlns="http://www.w3.org/2000/svg" width="43" height="46" viewBox="0 0 43 46" fill="none"><path d="M21.4636 5.5266C21.4578 5.52515 21.452 5.52515 21.4462 5.5266C21.4404 5.5266 21.4345 5.52515 21.4287 5.52515V5.5266C13.9369 5.61814 7.86621 11.7368 7.86621 19.2504C7.86621 26.7654 13.9369 32.8812 21.4287 32.9742V32.9757C21.4345 32.9757 21.4404 32.9757 21.4462 32.9742C21.452 32.9742 21.4578 32.9757 21.4636 32.9757V32.9742C28.9568 32.8841 35.0261 26.7683 35.0261 19.2504C35.0276 11.7397 28.9568 5.62105 21.4636 5.5266Z" fill="#383637"></path><path d="M37.5505 30.7845C37.9457 30.2106 38.2131 29.6047 38.3279 29.0234C38.4514 28.4117 38.4179 27.8378 38.2567 27.3452L38.2537 27.3423C38.2508 27.3321 38.2479 27.3205 38.245 27.3118C38.2363 27.2929 38.2276 27.2726 38.2247 27.2522L38.2218 27.2449C38.0096 26.6405 37.9835 25.8922 38.1462 25.1221L38.139 25.1177C38.1695 24.9869 38.2014 24.8576 38.2436 24.7254C38.3598 24.3738 38.5109 24.0468 38.6838 23.7504C39.3406 22.8248 41.231 22.0257 41.231 19.1356C41.231 16.1104 38.7928 15.2909 38.3337 13.9745C38.322 13.9454 38.3075 13.9294 38.2959 13.9033C38.2712 13.8394 38.2465 13.7783 38.2247 13.7129C37.9326 12.7903 37.9079 11.8749 38.1491 11.1527L38.168 11.1033C38.3249 10.6369 38.3642 10.0775 38.2625 9.48319H38.261V9.47883C38.2479 9.40327 38.2305 9.32772 38.2145 9.25071L38.2131 9.22746C38.1956 9.15917 38.1782 9.08942 38.1578 9.02113L38.1419 8.96882C38.1273 8.90925 38.107 8.84822 38.0837 8.7901L38.0547 8.71164L37.998 8.56779L37.9544 8.45445L37.9108 8.36146C37.8861 8.3077 37.8629 8.25684 37.8367 8.20453L37.8237 8.17983C37.703 7.94735 37.5636 7.71777 37.4023 7.49691L37.3732 7.45768L37.3572 7.43733C36.917 6.84014 36.391 6.37663 35.8461 6.07295C35.3027 5.76636 34.7432 5.6196 34.2303 5.62396H34.2245C34.2114 5.62396 34.2013 5.62396 34.1925 5.62251C34.1707 5.62396 34.1519 5.62541 34.1286 5.62396H34.1199C33.482 5.6414 32.7599 5.43361 32.0784 5.03839L32.074 5.04275C31.9622 4.97446 31.8474 4.90035 31.7369 4.82044C30.9567 4.24504 30.4031 3.51708 30.1764 2.79202L30.159 2.73971C30.0137 2.27038 29.7172 1.7967 29.2842 1.37532V1.37387C29.229 1.31865 29.1709 1.26489 29.1113 1.21549L29.091 1.1966C29.0372 1.15156 28.9835 1.10506 28.9268 1.06147L28.8847 1.02805L28.7306 0.916165L28.6623 0.869668L28.5316 0.78394L28.4299 0.72146L28.3398 0.670604C28.2889 0.640091 28.2381 0.613936 28.1872 0.587782L28.1625 0.574705C27.9315 0.45701 27.683 0.352392 27.4215 0.268117L27.375 0.253587L27.3459 0.243415C26.6397 0.0225559 25.9408 -0.0428301 25.3204 0.029821C24.6999 0.103925 24.1609 0.311707 23.7497 0.621201L23.7439 0.622654C23.7351 0.631373 23.725 0.637185 23.7148 0.642997C23.7003 0.65898 23.6843 0.670604 23.6639 0.680775L23.6596 0.685134C23.1496 1.07745 22.4478 1.33028 21.6617 1.41455V1.42182C21.5905 1.42908 21.5178 1.43054 21.4466 1.43199C21.374 1.43054 21.3013 1.43054 21.2316 1.42182V1.41601C20.4455 1.33173 19.7422 1.0789 19.2337 0.686588L19.2293 0.682229C19.2119 0.669151 19.1944 0.65898 19.1799 0.641544C19.1697 0.635732 19.1596 0.62992 19.1508 0.621201L19.1465 0.619748C18.7338 0.310255 18.1948 0.102472 17.5743 0.028368C16.9553 -0.0442832 16.2579 0.0211029 15.5488 0.241962L15.5212 0.252134L15.4747 0.268117C15.2132 0.352392 14.9661 0.45701 14.7337 0.574705L14.709 0.587782C14.6581 0.613936 14.6072 0.640091 14.5564 0.670604L14.4663 0.72146L14.3646 0.78394L14.2338 0.869668L14.1655 0.916165L14.0144 1.02514L13.9708 1.06001C13.9142 1.10361 13.8604 1.14865 13.8066 1.19369L13.7863 1.21258C13.7267 1.26198 13.6686 1.31575 13.6134 1.37096L13.6119 1.37241C13.1789 1.79379 12.884 2.26893 12.7387 2.7368L12.7212 2.79057C12.496 3.51562 11.9424 4.24504 11.1621 4.81899C11.0502 4.90181 10.934 4.97446 10.8236 5.04275L10.8178 5.03694C10.1363 5.43216 9.41559 5.63994 8.77771 5.62396H8.769C8.74575 5.62541 8.72541 5.62396 8.70506 5.62251C8.69199 5.62396 8.68472 5.62396 8.67019 5.62396H8.66583C8.15001 5.6196 7.5935 5.7649 7.05007 6.07149C6.50519 6.37517 5.97919 6.83869 5.53893 7.43588L5.52149 7.45768L5.49243 7.49836C5.32969 7.71777 5.19165 7.9488 5.07105 8.18128L5.05797 8.20453C5.03327 8.25684 5.00857 8.3077 4.98532 8.36146L4.94173 8.45445L4.89669 8.56779L4.84002 8.71309L4.81387 8.7901C4.79207 8.84822 4.77173 8.90925 4.75575 8.96737L4.73976 9.02113C4.71942 9.08797 4.69908 9.15771 4.68455 9.22746L4.68019 9.25216C4.66275 9.32772 4.64386 9.40618 4.63224 9.47883V9.48174C4.53053 10.0775 4.56976 10.6354 4.72814 11.1033L4.74557 11.1527C4.98678 11.8749 4.96208 12.7903 4.67002 13.7129C4.64968 13.7769 4.62352 13.8379 4.59882 13.9018C4.58574 13.928 4.57121 13.9454 4.56104 13.973C4.10188 15.2895 1.66371 16.109 1.66371 19.1342C1.66371 22.0242 3.5541 22.8234 4.21086 23.749C4.38377 24.0454 4.53343 24.3723 4.65113 24.7239C4.69327 24.8562 4.72669 24.9855 4.75575 25.1163L4.74848 25.1206C4.91267 25.8907 4.88797 26.639 4.67438 27.2435L4.67147 27.2508C4.66856 27.2711 4.65985 27.2914 4.65113 27.3103C4.64822 27.322 4.64532 27.3336 4.64241 27.3408L4.6395 27.3438C4.47677 27.8363 4.4448 28.4103 4.56831 29.022C4.68309 29.6017 4.95045 30.2091 5.34567 30.7831L0 40.7987H5.70166L8.59754 45.1898L13.5247 37.0761C13.564 37.1153 13.5901 37.1633 13.6323 37.2011C14.0914 37.621 14.6959 37.9784 15.402 38.2095C15.6636 38.2952 15.9251 38.3562 16.1823 38.3969L16.2085 38.4013C16.268 38.41 16.3247 38.4158 16.3799 38.4231L16.4875 38.4376L16.6066 38.4478L16.7606 38.4579H16.8449H17.0323H17.0847C17.1558 38.4536 17.2285 38.4507 17.2968 38.4434L17.3229 38.4419C17.4029 38.4347 17.4799 38.4216 17.5583 38.4114H17.5598C18.157 38.3228 18.6743 38.1136 19.068 37.8186L19.1102 37.7881C19.6928 37.3536 20.5283 37.0979 21.4481 37.0703C22.3678 37.0993 23.2033 37.3536 23.786 37.7881L23.8267 37.8186C24.2204 38.1136 24.7377 38.3257 25.3364 38.4114C25.4163 38.4216 25.4918 38.4347 25.5718 38.4419L25.5994 38.4434C25.6691 38.4507 25.7418 38.4536 25.8115 38.4579H25.8638H26.0527H26.1355L26.2896 38.4478L26.4087 38.4376L26.5162 38.4231C26.5714 38.4158 26.6281 38.41 26.6877 38.4013L26.7138 38.3969C26.9725 38.3562 27.2326 38.2952 27.4941 38.2095C28.1988 37.9784 28.8033 37.621 29.2653 37.2011C29.306 37.1633 29.3336 37.1153 29.3714 37.0761L34.3001 45.1898L37.1945 40.8002H42.8962L37.5505 30.7845ZM35.5511 23.4438C35.3913 23.9844 35.2038 24.5133 34.9815 25.0349C34.2318 26.8047 33.1624 28.3943 31.798 29.7587C30.435 31.1216 28.8469 32.1954 27.0785 32.9408C25.2928 33.6949 23.4009 34.0814 21.4481 34.1018C19.4967 34.0814 17.6034 33.6949 15.8191 32.9408C14.0493 32.191 12.4611 31.1216 11.0982 29.7587C9.7338 28.3957 8.66147 26.8047 7.91462 25.0349C7.69376 24.5162 7.50632 23.9844 7.34503 23.4438C7.16776 22.7958 6.74639 21.0652 6.74639 19.2519C6.74639 16.9546 7.34503 15.0599 7.34503 15.0599C7.50487 14.5208 7.69231 13.9905 7.91462 13.4674C8.66293 11.6976 9.73526 10.1109 11.0996 8.74651C12.4626 7.38357 14.0507 6.31124 15.8205 5.56293C17.6063 4.80881 19.4981 4.42231 21.4495 4.40342C23.4009 4.42231 25.2942 4.80881 27.08 5.56293C28.8483 6.31124 30.4379 7.38357 31.7994 8.74651C33.1638 10.1109 34.2376 11.6991 34.983 13.4674C35.2038 13.989 35.3913 14.5208 35.5526 15.0599C35.5526 15.0599 36.1512 16.9546 36.1512 19.2519C36.1498 21.0652 35.7284 22.7958 35.5511 23.4438Z" fill="#383637"></path></svg>