<svg xmlns="http://www.w3.org/2000/svg" width="45" height="60" viewBox="0 0 45 60" fill="none"><path d="M27.5 12C37.1453 12 45 19.8509 45 29.5101C45 39.1491 37.1453 47 27.5 47C17.8547 47 10 39.1491 10 29.5101C10 19.8509 17.8547 12 27.5 12ZM25.5068 22.5523C25.1351 22.5523 24.7804 22.6368 24.4426 22.8056C24.0203 23.042 23.6824 23.4134 23.4966 23.8524C23.3784 24.1563 23.1926 25.068 23.1926 25.0849C23.0068 26.081 22.9054 27.7019 22.9054 29.4916C22.9054 31.1985 23.0068 32.7501 23.1588 33.7631C23.1757 33.78 23.3615 34.9112 23.5642 35.2996C23.9358 36.0087 24.6622 36.4477 25.4392 36.4477H25.5068C26.0135 36.4308 27.0777 35.9918 27.0777 35.9749C28.8682 35.232 32.3986 32.919 33.8176 31.3825L33.9189 31.2812C34.1047 31.0955 34.3412 30.8085 34.3919 30.741C34.6622 30.3864 34.7973 29.9474 34.7973 29.5101C34.7973 29.0188 34.6453 28.563 34.3581 28.1915C34.2905 28.124 34.0372 27.837 33.8007 27.6006C32.4155 26.1148 28.8007 23.6836 26.9088 22.9407C26.6216 22.8242 25.8953 22.5692 25.5068 22.5523Z" fill="#FABD00"></path><path fill-rule="evenodd" clip-rule="evenodd" d="M29.9827 0C13.4237 9.27727e-06 0 13.4237 0 29.9827C0 46.5417 13.4237 59.9654 29.9827 59.9654V55.9654C15.6328 55.9654 4 44.3325 4 29.9827C4 15.6328 15.6328 4.00001 29.9827 4V0Z" fill="#1E9ADF"></path></svg>