<svg xmlns="http://www.w3.org/2000/svg" width="19" height="19" viewBox="0 0 19 19" fill="none"><path d="M11.7519 17.3851L11.761 17.3915C12.5481 17.8926 13.4825 18.1102 14.41 18.0084C15.3374 17.9065 16.2024 17.4913 16.8619 16.8313L17.4349 16.2584C17.5618 16.1315 17.6626 15.9808 17.7313 15.815C17.8 15.6492 17.8354 15.4714 17.8354 15.2919C17.8354 15.1124 17.8 14.9347 17.7313 14.7688C17.6626 14.603 17.5618 14.4524 17.4349 14.3255L15.0183 11.9107C14.8914 11.7838 14.7408 11.683 14.5749 11.6143C14.4091 11.5456 14.2314 11.5102 14.0519 11.5102C13.8724 11.5102 13.6946 11.5456 13.5288 11.6143C13.363 11.683 13.2123 11.7838 13.0854 11.9107C12.8292 12.1669 12.4817 12.3108 12.1194 12.3108C11.7571 12.3108 11.4097 12.1669 11.1535 11.9107L7.2895 8.04586C7.03336 7.78963 6.88946 7.44217 6.88946 7.07987C6.88946 6.71757 7.03336 6.3701 7.2895 6.11388C7.41647 5.987 7.51719 5.83633 7.58591 5.67051C7.65463 5.50468 7.69 5.32694 7.69 5.14744C7.69 4.96794 7.65463 4.79019 7.58591 4.62437C7.51719 4.45854 7.41647 4.30788 7.2895 4.18099L4.87385 1.76625C4.61763 1.51011 4.27016 1.36621 3.90786 1.36621C3.54556 1.36621 3.19809 1.51011 2.94187 1.76625L2.36802 2.33919C1.70817 2.99883 1.29311 3.86385 1.19142 4.79131C1.08973 5.71878 1.30749 6.65318 1.80874 7.44012L1.8142 7.44923C4.46139 11.3658 7.83483 14.7386 11.7519 17.3851V17.3851Z" stroke="#FCFCFC" stroke-width="1.4" stroke-linecap="round" stroke-linejoin="round"></path></svg>